<svg id="Capa_1" enable-background="new 0 0 512 512" height="512" viewBox="0 0 512 512" width="512" xmlns="http://www.w3.org/2000/svg"><g><path d="m462.298 119.383c41.278-23.832 60.435-65.324 43.612-94.461-16.822-29.138-62.334-33.294-103.612-9.462s-60.435 65.324-43.612 94.462c16.823 29.137 62.335 33.293 103.612 9.461zm-45-77.942c28.07-16.206 55.537-13.808 62.631-1.519 7.095 12.288-4.562 37.275-32.631 53.481-28.07 16.206-55.537 13.808-62.631 1.519-7.095-12.289 4.562-37.275 32.631-53.481z"/><path d="m504.498 152.01c-7.175-4.144-16.349-1.684-20.49 5.49-12.407 21.488-39.983 28.877-61.471 16.471-7.175-4.145-16.349-1.684-20.49 5.49-4.142 7.174-1.684 16.348 5.49 20.49 11.569 6.679 24.402 10.091 37.402 10.091 6.508 0 13.06-.856 19.513-2.585 19.342-5.183 35.514-17.598 45.537-34.958 4.141-7.173 1.683-16.347-5.491-20.489z"/><path d="m395 242h-84.438l24.904-33.205c14.196-18.929 12.285-45.819-4.446-62.55-18.196-18.195-47.286-18.804-66.229-1.387l-109.391 100.592-19.4 14.55c-10.318 7.738-23.103 12-36 12h-85c-8.284 0-15 6.716-15 15v180c0 8.284 6.716 15 15 15h85c12.897 0 25.682 4.262 36 12 15.476 11.607 34.654 18 54 18h165c24.813 0 45-20.187 45-45 0-7.136-1.677-13.885-4.646-19.886 14.61-7.444 24.646-22.624 24.646-40.114 0-7.136-1.677-13.885-4.646-19.886 14.61-7.444 24.646-22.624 24.646-40.114 0-11.517-4.354-22.032-11.495-30 7.142-7.968 11.495-18.483 11.495-30 0-24.813-20.187-45-45-45zm-90 90h90c8.271 0 15 6.729 15 15s-6.729 15-15 15h-90c-8.284 0-15 6.716-15 15s6.716 15 15 15h70c8.271 0 15 6.729 15 15s-6.729 15-15 15h-70c-8.284 0-15 6.716-15 15s6.716 15 15 15h50c8.271 0 15 6.729 15 15s-6.729 15-15 15h-165c-12.897 0-25.683-4.262-36-12-15.477-11.607-34.654-18-54-18h-70v-150h70c19.346 0 38.523-6.393 54-18 13.004-6.298 117.557-105.14 131.098-117.059 7.066-6.498 17.921-6.271 24.709.517 6.242 6.242 6.955 16.275 1.659 23.337l-42.904 57.205c-3.409 4.545-3.958 10.626-1.417 15.708s7.735 8.292 13.417 8.292h114.438c8.271 0 15 6.729 15 15s-6.729 15-15 15h-90c-8.284 0-15 6.716-15 15s6.716 15 15 15z"/></g></svg>